<svg width="27" height="27" viewBox="0 0 27 27" fill="none" xmlns="http://www.w3.org/2000/svg">
<path d="M26.6753 16.8557C26.7086 19.0377 25.7441 21.0929 24.0103 22.8618C23.8817 22.9945 23.8098 23.0867 23.6835 23.2149C23.5798 23.3102 23.4255 23.4579 23.3166 23.5494C23.2076 23.6408 23.0964 23.7316 22.9845 23.8178C22.8513 23.9318 22.7152 24.0427 22.582 24.1447C22.3853 24.2947 22.1864 24.4356 21.9837 24.5751C19.7453 26.098 17.0076 26.967 14.3327 26.9978C10.731 26.9997 7.27436 25.5909 4.71575 23.0783C2.15714 20.5656 0.703801 17.1526 0.672272 13.5827C3.15578 17.3318 7.67571 17.0604 12.5376 17.0604C17.9153 17.0604 22.3392 16.7815 24.6525 12.3568C25.2797 12.8792 25.7873 13.5282 26.1412 14.2606C26.2181 14.435 26.2861 14.6132 26.3447 14.7944C26.4022 14.9676 26.4544 15.1138 26.496 15.3006C26.5376 15.4873 26.5618 15.6567 26.5891 15.8314C26.6163 16.0061 26.6345 16.1786 26.6466 16.3488C26.6587 16.519 26.6723 16.6877 26.6753 16.8557Z" fill="url(#paint0_linear)"/>
<path d="M22.3989 3.45335C21.564 3.16564 20.7131 2.92556 19.8504 2.73427L19.7831 2.72152C17.3359 2.25588 14.838 2.37885 12.4611 3.29363C12.2862 3.36562 12.1142 3.4426 11.9452 3.52458C9.91561 4.49935 8.27104 6.1707 7.5123 8.58588C7.46161 8.76659 7.41774 8.94655 7.37916 9.1265C7.12952 10.309 7.13406 11.5372 7.44497 12.6642C6.891 10.6314 6.81433 8.49986 7.22084 6.43317C7.62736 4.36647 8.50625 2.41959 9.79004 0.741989C10.0267 0.654402 10.2678 0.579314 10.5125 0.517042C10.5125 0.511793 10.8491 0.426314 10.8521 0.421816L11.1305 0.357331C12.0543 0.148046 12.9966 0.0297491 13.9438 0.00416392C16.8094 -0.0753173 20.1605 0.986431 22.6433 2.89998C23.1355 3.27659 23.5955 3.69291 24.0186 4.14468L23.899 4.0847L23.84 4.0547C23.5006 3.88443 23.1515 3.73371 22.7946 3.60331C22.7711 3.59731 22.4247 3.46234 22.3989 3.45335Z" fill="url(#paint1_linear)"/>
<path d="M18.8216 10.8953C18.6312 10.9236 18.4426 10.9621 18.2565 11.0108C15.5332 11.7269 14.0959 14.5267 11.5859 15.3658C11.4202 15.4037 11.2525 15.4325 11.0836 15.452C10.2432 15.5412 9.39894 15.3635 8.71735 14.8462C8.52967 14.7032 8.35956 14.5388 8.21052 14.3565C7.86701 13.8359 7.60864 13.2647 7.44497 12.6642C6.89099 10.6314 6.81432 8.49988 7.22084 6.43318C7.62735 4.36648 8.50625 2.4196 9.79004 0.742004C8.79679 1.07418 7.858 1.44909 6.9873 1.97996C4.26096 3.66406 2.25025 6.26219 1.28121 9.37696C0.873486 10.6986 0.667463 12.0732 0.669975 13.4552C0.669975 13.4987 0.669975 13.5392 0.669975 13.5827C1.91947 15.4746 3.62007 17.0322 5.62136 18.1177C7.62266 19.2032 9.86298 19.7831 12.1442 19.8062C12.1949 19.8062 12.2456 19.8062 12.2955 19.8062C14.8461 19.8069 17.3477 19.1122 19.5267 17.798C21.7056 16.4838 23.4778 14.6009 24.6495 12.3552C23.0934 11.0446 20.8845 10.5279 18.8216 10.8953Z" fill="url(#paint2_linear)"/>
<defs>
<linearGradient id="paint0_linear" x1="13.6745" y1="12.8006" x2="13.6745" y2="26.9056" gradientUnits="userSpaceOnUse">
<stop stop-color="#125E4D"/>
<stop offset="0.5" stop-color="#2D9F5A"/>
<stop offset="1" stop-color="#43BE71"/>
</linearGradient>
<linearGradient id="paint1_linear" x1="9.53738" y1="6.3904" x2="24.5702" y2="5.65701" gradientUnits="userSpaceOnUse">
<stop stop-color="#125E4D"/>
<stop offset="0.5" stop-color="#2D9F5A"/>
<stop offset="1" stop-color="#43BE71"/>
</linearGradient>
<linearGradient id="paint2_linear" x1="8.04934" y1="19.7984" x2="17.9818" y2="0.632256" gradientUnits="userSpaceOnUse">
<stop stop-color="#125E4D"/>
<stop offset="0.463542" stop-color="#2D9F5A"/>
<stop offset="1" stop-color="#43BE71"/>
</linearGradient>
</defs>
</svg>
