<svg width="296" height="94" viewBox="0 0 296 94" fill="none" xmlns="http://www.w3.org/2000/svg">
<g clip-path="url(#clip0)">
<path d="M296.311 29.9656C296.37 33.8447 294.656 37.4985 291.573 40.6431C291.345 40.879 291.217 41.043 290.992 41.2709C290.808 41.4402 290.534 41.7028 290.34 41.8655C290.146 42.0281 289.949 42.1894 289.75 42.3427C289.513 42.5453 289.271 42.7426 289.034 42.9239C288.685 43.1905 288.331 43.4411 287.97 43.689C283.991 46.3964 279.124 47.9414 274.369 47.996C267.966 47.9994 261.821 45.4949 257.272 41.028C252.723 36.561 250.14 30.4935 250.083 24.147C254.499 30.8121 262.534 30.3295 271.177 30.3295C280.738 30.3295 288.602 29.8337 292.715 21.9675C293.83 22.8962 294.732 24.0501 295.362 25.3521C295.498 25.6622 295.619 25.9789 295.723 26.3012C295.826 26.6091 295.918 26.869 295.992 27.201C296.066 27.5329 296.109 27.8341 296.158 28.1447C296.206 28.4553 296.238 28.7619 296.26 29.0645C296.282 29.3671 296.306 29.667 296.311 29.9656Z" fill="url(#paint0_linear)"/>
<path d="M288.709 6.13928C287.224 5.62781 285.712 5.20099 284.178 4.86092L284.058 4.83826C279.708 4.01045 275.267 4.22907 271.041 5.85535C270.73 5.98332 270.425 6.12017 270.124 6.26592C266.516 7.99884 263.592 10.9701 262.243 15.2638C262.153 15.585 262.075 15.905 262.007 16.2249C261.563 18.3271 261.571 20.5105 262.124 22.5141C261.139 18.9003 261.003 15.1109 261.725 11.4367C262.448 7.76261 264.011 4.30149 266.293 1.31909C266.713 1.16338 267.142 1.02989 267.577 0.919185C267.577 0.909854 268.176 0.757892 268.181 0.749894L268.676 0.635254C270.318 0.263193 271.993 0.0528872 273.677 0.00740251C278.772 -0.133897 284.729 1.75365 289.143 5.15551C290.018 5.82505 290.836 6.56518 291.588 7.36832L291.375 7.26168L291.271 7.20836C290.667 6.90565 290.047 6.63771 289.412 6.40588C289.37 6.39522 288.754 6.15528 288.709 6.13928Z" fill="url(#paint1_linear)"/>
<path d="M282.349 19.3695C282.011 19.4196 281.675 19.4881 281.345 19.5747C276.503 20.8478 273.948 25.8253 269.486 27.3169C269.191 27.3843 268.893 27.4354 268.593 27.4702C267.099 27.6288 265.598 27.3129 264.386 26.3931C264.052 26.1389 263.75 25.8468 263.485 25.5227C262.874 24.5971 262.415 23.5817 262.124 22.514C261.139 18.9003 261.003 15.1109 261.726 11.4367C262.448 7.7626 264.011 4.30149 266.293 1.31909C264.527 1.90962 262.858 2.57613 261.31 3.5199C256.464 6.51386 252.889 11.1328 251.166 16.6701C250.441 19.0197 250.075 21.4634 250.08 23.9204C250.08 23.9977 250.08 24.0697 250.08 24.147C252.301 27.5104 255.324 30.2795 258.882 32.2092C262.44 34.139 266.423 35.17 270.478 35.211C270.568 35.211 270.658 35.211 270.747 35.211C275.282 35.2122 279.729 33.9771 283.603 31.6408C287.476 29.3045 290.627 25.9571 292.71 21.9648C289.943 19.6347 286.017 18.7163 282.349 19.3695Z" fill="url(#paint2_linear)"/>
<path d="M157.937 20.4713C157.557 20.473 157.189 20.33 156.91 20.0714C156.765 19.9419 156.651 19.7824 156.575 19.6042C156.499 19.4259 156.463 19.2332 156.47 19.0396C156.465 18.8109 156.449 18.5827 156.422 18.3557C156.354 17.9318 156.258 17.3399 156.126 16.588C155.742 14.8633 154.875 13.2835 153.626 12.0329C151.731 10.1053 148.987 9.1415 145.396 9.1415C142.815 9.1415 140.781 9.59875 139.293 10.5132C137.854 11.3799 136.69 12.6379 135.938 14.1405C135.162 15.731 134.681 17.4492 134.518 19.2115C134.321 21.0914 134.223 22.9803 134.222 24.8704C134.222 25.5263 134.222 26.2581 134.25 27.074C134.278 27.8898 134.322 28.7497 134.422 29.6495C134.522 30.5627 134.667 31.4703 134.858 32.3689C135.054 33.2754 135.334 34.1617 135.694 35.0164C137.325 38.749 140.56 40.6153 145.396 40.6153C150.099 40.6153 153.333 38.949 155.098 35.6163C155.419 35.0211 155.686 34.3988 155.898 33.7567C156.067 33.218 156.2 32.669 156.298 32.113C156.385 31.5835 156.443 31.0494 156.47 30.5133C156.467 30.3277 156.505 30.1438 156.581 29.9745C156.657 29.8052 156.769 29.6547 156.91 29.5335C157.189 29.2752 157.557 29.1323 157.937 29.1336C158.119 29.1292 158.299 29.1617 158.467 29.2291C158.636 29.2964 158.789 29.3973 158.917 29.5256C159.045 29.6538 159.146 29.8068 159.214 29.9752C159.281 30.1436 159.314 30.324 159.309 30.5053C159.309 30.5373 159.309 30.7453 159.285 31.1172C159.255 31.6118 159.189 32.1036 159.089 32.5889C158.973 33.1928 158.805 33.8806 158.577 34.6445C158.33 35.4515 158.002 36.2313 157.597 36.972C156.657 38.7481 155.268 40.2479 153.57 41.3232C152.492 42.004 151.32 42.524 150.091 42.8669C148.559 43.2838 146.975 43.4817 145.388 43.4548C142.154 43.4548 139.488 42.7682 137.389 41.3952C135.531 40.0456 134.052 38.2399 133.094 36.1522C132.68 35.1794 132.359 34.1698 132.135 33.1368C131.912 32.1347 131.742 31.1215 131.627 30.1014C131.515 29.1069 131.451 28.1591 131.435 27.2579C131.419 26.3568 131.411 25.5649 131.411 24.8824C131.411 24.1306 131.419 23.2974 131.435 22.3829C131.451 21.4684 131.507 20.5219 131.603 19.5435C131.702 18.5373 131.864 17.5382 132.087 16.552C132.31 15.5432 132.631 14.5587 133.046 13.6126C133.521 12.5359 134.142 11.5304 134.894 10.6252C135.611 9.77457 136.432 9.01685 137.337 8.36965C139.43 6.99926 142.11 6.31272 145.376 6.31006C149.751 6.31006 153.181 7.55248 155.666 10.0373C156.5 10.8858 157.194 11.8618 157.721 12.9288C158.174 13.8373 158.536 14.7884 158.801 15.7682C158.997 16.4996 159.13 17.246 159.201 17.9998C159.249 18.6036 159.273 18.9556 159.273 19.0516V19.0995C159.279 19.2812 159.247 19.462 159.18 19.631C159.113 19.7999 159.012 19.9533 158.884 20.0818C158.755 20.2103 158.602 20.3112 158.433 20.3782C158.264 20.4451 158.083 20.4768 157.901 20.4713H157.937Z" fill="#1F8E4E"/>
<path d="M185.272 9.34946H162.045C161.674 9.34547 161.318 9.19788 161.054 8.93765C160.789 8.67742 160.635 8.32479 160.625 7.95374C160.62 7.7656 160.652 7.57831 160.721 7.40309C160.79 7.22787 160.893 7.0683 161.025 6.93394C161.154 6.79768 161.31 6.68966 161.482 6.61669C161.655 6.54372 161.841 6.5074 162.029 6.51002H185.256C185.444 6.5074 185.63 6.54372 185.803 6.61669C185.975 6.68966 186.131 6.79768 186.26 6.93394C186.392 7.0683 186.495 7.22787 186.564 7.40309C186.633 7.57831 186.665 7.7656 186.66 7.95374C186.65 8.32479 186.496 8.67742 186.231 8.93765C185.967 9.19788 185.611 9.34547 185.24 9.34946H185.272ZM173.587 43.2588C173.398 43.2664 173.209 43.2328 173.034 43.1603C172.86 43.0878 172.703 42.9781 172.575 42.8389C172.315 42.5698 172.171 42.2092 172.175 41.8351V12.7808C172.178 12.4221 172.321 12.0788 172.575 11.825C172.705 11.69 172.863 11.5845 173.037 11.5155C173.212 11.4466 173.399 11.4157 173.587 11.4251C173.77 11.4211 173.952 11.4545 174.122 11.5232C174.291 11.592 174.446 11.6947 174.574 11.825C174.702 11.9492 174.803 12.0979 174.872 12.2621C174.94 12.4264 174.975 12.6028 174.974 12.7808V41.8351C174.979 42.0207 174.945 42.2053 174.877 42.3778C174.808 42.5503 174.705 42.7071 174.574 42.8389C174.448 42.9734 174.294 43.0802 174.124 43.1524C173.954 43.2247 173.771 43.2609 173.587 43.2588V43.2588Z" fill="#1F8E4E"/>
<path d="M217.829 41.8871C217.806 42.2557 217.645 42.6019 217.377 42.8563C217.109 43.1107 216.755 43.2545 216.386 43.2588C216.194 43.2677 216.003 43.2271 215.831 43.141C215.66 43.0548 215.513 42.926 215.406 42.7669L205.312 31.937H193.502V41.8871C193.501 42.0672 193.462 42.2451 193.388 42.4091C193.313 42.5731 193.205 42.7196 193.07 42.8389C192.946 42.9695 192.796 43.074 192.631 43.1461C192.465 43.2182 192.287 43.2565 192.106 43.2588C191.922 43.2612 191.738 43.2251 191.568 43.1528C191.398 43.0805 191.245 42.9736 191.119 42.8389C190.991 42.7154 190.89 42.5674 190.821 42.4038C190.753 42.2403 190.718 42.0645 190.719 41.8871V7.92973C190.719 7.55389 190.868 7.19338 191.133 6.92725C191.399 6.66111 191.759 6.51107 192.134 6.51001H204.068C204.168 6.51001 204.524 6.53401 205.144 6.582C205.92 6.65293 206.689 6.78668 207.443 6.98192C208.451 7.25407 209.428 7.62931 210.359 8.1017C211.459 8.65086 212.466 9.37024 213.342 10.2333C215.59 12.4542 216.714 15.4429 216.714 19.1995C216.766 21.3628 216.373 23.5138 215.558 25.5183C214.904 27.0061 213.926 28.3288 212.694 29.3895C212.551 29.5136 212.384 29.6061 212.203 29.6612C212.021 29.7164 211.831 29.7328 211.643 29.7095C211.279 29.668 210.94 29.5028 210.683 29.2415C210.556 29.1055 210.464 28.9414 210.413 28.7627C210.363 28.5841 210.355 28.3959 210.391 28.2137C210.445 27.8427 210.617 27.499 210.883 27.2339C212.906 25.5383 213.918 22.8601 213.918 19.1995C213.918 16.1921 213.084 13.8566 211.415 12.1929C210.719 11.4801 209.893 10.9061 208.983 10.5012C208.244 10.1762 207.48 9.90879 206.7 9.70138C205.9 9.56941 205.276 9.47343 204.784 9.40944C204.54 9.37757 204.294 9.36021 204.048 9.35745H193.502V29.0976H205.996C206.181 29.0996 206.363 29.1397 206.532 29.2154C206.7 29.2911 206.851 29.4007 206.976 29.5375L217.461 40.9073C217.591 41.0337 217.691 41.187 217.754 41.3563C217.818 41.5256 217.844 41.7068 217.829 41.8871V41.8871Z" fill="#1F8E4E"/>
<path d="M222.921 38.9956C222.546 39.0003 222.185 38.8565 221.917 38.5957C221.785 38.4696 221.681 38.3171 221.613 38.1483C221.544 37.9795 221.511 37.7981 221.517 37.6159V7.92972C221.517 7.55319 221.666 7.19208 221.933 6.92583C222.199 6.65958 222.56 6.51 222.937 6.51C223.119 6.5039 223.302 6.53635 223.471 6.60525C223.641 6.67416 223.794 6.77796 223.92 6.90992C224.181 7.17849 224.325 7.53941 224.32 7.91373V37.6239C224.325 37.8056 224.292 37.9863 224.225 38.1549C224.157 38.3236 224.056 38.4768 223.927 38.6051C223.798 38.7334 223.645 38.8342 223.476 38.9013C223.307 38.9685 223.126 39.0006 222.945 38.9956H222.921ZM241.553 43.2588H222.921C222.733 43.2609 222.547 43.2244 222.375 43.1514C222.202 43.0785 222.046 42.9707 221.917 42.8349C221.785 42.6995 221.682 42.5392 221.613 42.3634C221.545 42.1875 221.512 41.9998 221.517 41.8111C221.511 41.6264 221.543 41.4424 221.612 41.271C221.681 41.0995 221.785 40.9443 221.917 40.8153C222.049 40.6849 222.206 40.5823 222.378 40.5136C222.551 40.4449 222.735 40.4115 222.921 40.4153H241.553C241.919 40.417 242.27 40.5603 242.533 40.8153C242.675 40.9385 242.789 41.0916 242.866 41.2637C242.942 41.4358 242.98 41.6227 242.977 41.8111C242.979 42.0033 242.94 42.1939 242.864 42.3703C242.787 42.5467 242.675 42.705 242.533 42.8349C242.405 42.9665 242.253 43.0718 242.085 43.1445C241.917 43.2173 241.736 43.2561 241.553 43.2588V43.2588Z" fill="#1F8E4E"/>
<path d="M24.6477 9.34946H1.42028C1.23007 9.35432 1.04096 9.31909 0.86526 9.24605C0.689559 9.17302 0.5312 9.06381 0.400482 8.92555C0.271951 8.79874 0.170293 8.64733 0.101581 8.48036C0.0328692 8.31339 -0.00148823 8.13428 0.000560995 7.95374C-0.00476709 7.7656 0.0279034 7.57831 0.0966185 7.40309C0.165334 7.22787 0.268682 7.0683 0.400482 6.93394C0.529375 6.79768 0.685138 6.68966 0.85792 6.61669C1.0307 6.54372 1.21674 6.5074 1.40428 6.51002H24.6477C24.8352 6.5074 25.0213 6.54372 25.1941 6.61669C25.3669 6.68966 25.5226 6.79768 25.6515 6.93394C25.7833 7.0683 25.8867 7.22787 25.9554 7.40309C26.0241 7.57831 26.0568 7.7656 26.0514 7.95374C26.0411 8.32479 25.8875 8.67742 25.6228 8.93765C25.3581 9.19788 25.0029 9.34547 24.6317 9.34946H24.6477ZM12.962 43.2588C12.773 43.2664 12.5846 43.2328 12.4099 43.1603C12.2351 43.0878 12.0783 42.9781 11.9502 42.8389C11.8209 42.706 11.719 42.549 11.6504 42.3768C11.5818 42.2045 11.5478 42.0205 11.5503 41.8351V12.7808C11.5508 12.603 11.5864 12.4271 11.655 12.263C11.7237 12.099 11.824 11.9502 11.9502 11.825C12.0806 11.69 12.2383 11.5845 12.4128 11.5155C12.5873 11.4466 12.7746 11.4157 12.962 11.4251C13.1447 11.4207 13.3262 11.4539 13.4955 11.5227C13.6647 11.5915 13.818 11.6944 13.9458 11.825C14.0739 11.9488 14.1754 12.0974 14.2441 12.2617C14.3129 12.4261 14.3475 12.6027 14.3457 12.7808V41.8351C14.3507 42.0208 14.3179 42.2056 14.2491 42.3782C14.1803 42.5507 14.0772 42.7075 13.9458 42.8389C13.8201 42.9735 13.6676 43.0803 13.4982 43.1526C13.3288 43.225 13.1462 43.2611 12.962 43.2588V43.2588Z" fill="#232326"/>
<path d="M40.4646 43.4028C35.7616 43.4028 32.2663 41.9657 29.9787 39.0916C27.4965 36.1215 26.2554 31.3851 26.2554 24.8824C26.2477 23.3612 26.3211 21.8407 26.4754 20.3273C26.6092 19.0427 26.8135 17.7663 27.0873 16.5041C27.6418 14.0192 28.5083 12.0756 29.6868 10.6732C30.9143 9.19095 32.4982 8.04468 34.2899 7.34186C35.9269 6.69133 37.9851 6.36472 40.4646 6.36206C41.5966 6.35523 42.7272 6.44487 43.844 6.63C44.8313 6.79117 45.7894 7.09707 46.6874 7.53783C48.5116 8.2793 50.1028 9.49759 51.2945 11.0651C53.4807 14.0725 54.5752 18.6783 54.5779 24.8824C54.6061 27.585 54.3257 30.2819 53.742 32.9208C53.4679 34.02 53.0916 35.0911 52.6182 36.1202C52.1785 37.0695 51.618 37.958 50.9506 38.7637C48.599 41.8564 45.1037 43.4028 40.4646 43.4028ZM40.4646 9.2055C36.3801 9.2055 33.506 10.2826 31.8423 12.4369C29.976 14.8897 29.0429 19.0382 29.0429 24.8824C28.9958 27.4101 29.2522 29.9344 29.8067 32.4009C30.2042 34.1853 30.9638 35.869 32.0383 37.348C33.7686 39.5049 36.5774 40.5833 40.4646 40.5833C44.2186 40.5833 47.0113 39.3742 48.843 36.9561C49.8797 35.4531 50.6196 33.7658 51.0226 31.985C51.5646 29.6641 51.8198 27.2855 51.7824 24.9024C51.7824 19.3835 50.8852 15.3656 49.0909 12.8488C47.2913 10.4199 44.4159 9.2055 40.4646 9.2055Z" fill="#232326"/>
<path d="M78.469 9.34952H55.2416C54.8704 9.34552 54.5152 9.19793 54.2505 8.9377C53.9858 8.67747 53.8322 8.32484 53.8219 7.95379C53.8165 7.76565 53.8492 7.57837 53.9179 7.40314C53.9866 7.22792 54.09 7.06835 54.2218 6.93399C54.3504 6.79735 54.5061 6.68906 54.6789 6.61606C54.8518 6.54306 55.038 6.50696 55.2256 6.51007H78.453C78.6405 6.50745 78.8266 6.54378 78.9994 6.61675C79.1722 6.68971 79.3279 6.79774 79.4568 6.93399C79.5886 7.06835 79.692 7.22792 79.7607 7.40314C79.8294 7.57837 79.8621 7.76565 79.8567 7.95379C79.8464 8.32484 79.6928 8.67747 79.4281 8.9377C79.1634 9.19793 78.8082 9.34552 78.437 9.34952H78.469ZM66.7873 43.2589C66.5983 43.2665 66.4099 43.2328 66.2352 43.1603C66.0604 43.0878 65.9036 42.9781 65.7755 42.8389C65.6462 42.7061 65.5443 42.549 65.4757 42.3768C65.4071 42.2046 65.3731 42.0205 65.3756 41.8351V12.7808C65.3761 12.6031 65.4117 12.4271 65.4803 12.2631C65.5489 12.0991 65.6493 11.9502 65.7755 11.825C65.9059 11.6901 66.0636 11.5846 66.2381 11.5156C66.4126 11.4466 66.5999 11.4158 66.7873 11.4251C66.9699 11.4207 67.1515 11.454 67.3208 11.5228C67.49 11.5916 67.6433 11.6945 67.7711 11.825C67.8992 11.9488 68.0007 12.0974 68.0694 12.2618C68.1382 12.4261 68.1728 12.6027 68.171 12.7808V41.8351C68.176 42.0208 68.1432 42.2056 68.0744 42.3782C68.0056 42.5508 67.9024 42.7076 67.7711 42.8389C67.6454 42.9735 67.4929 43.0804 67.3235 43.1527C67.1541 43.225 66.9715 43.2612 66.7873 43.2589V43.2589Z" fill="#232326"/>
<path d="M104.952 41.2992C105.031 41.4675 105.072 41.6511 105.072 41.8371C105.072 42.023 105.031 42.2066 104.952 42.3749C104.798 42.7348 104.512 43.0214 104.152 43.1748C103.988 43.2555 103.809 43.2994 103.627 43.3036C103.444 43.3077 103.263 43.272 103.096 43.1988C102.754 43.0541 102.481 42.7815 102.336 42.4389L89.7629 11.605L77.0694 42.4229C76.9489 42.6712 76.7615 42.881 76.5284 43.0286C76.2953 43.1763 76.0256 43.256 75.7496 43.2588C75.5643 43.2687 75.3792 43.2344 75.2097 43.1588C74.8499 43.0054 74.5633 42.7188 74.4099 42.3589C74.3291 42.1911 74.2871 42.0073 74.2871 41.8211C74.2871 41.6348 74.3291 41.451 74.4099 41.2832L88.4711 7.32583C88.5799 7.07868 88.7583 6.86852 88.9845 6.72098C89.2106 6.57343 89.4748 6.49487 89.7449 6.49487C90.0149 6.49487 90.2791 6.57343 90.5053 6.72098C90.7315 6.86852 90.9098 7.07868 91.0186 7.32583L104.952 41.2992ZM94.7099 33.3607H84.7119C84.3478 33.3414 84.0051 33.1832 83.7542 32.9187C83.5034 32.6542 83.3636 32.3035 83.3636 31.939C83.3636 31.5745 83.5034 31.2238 83.7542 30.9593C84.0051 30.6948 84.3478 30.5366 84.7119 30.5173H94.7099C95.0739 30.5366 95.4167 30.6948 95.6675 30.9593C95.9184 31.2238 96.0582 31.5745 96.0582 31.939C96.0582 32.3035 95.9184 32.6542 95.6675 32.9187C95.4167 33.1832 95.0739 33.3414 94.7099 33.3607V33.3607Z" fill="#232326"/>
<path d="M110.435 38.9957C110.061 39.0003 109.7 38.8565 109.431 38.5958C109.295 38.4719 109.187 38.3203 109.115 38.1513C109.043 37.9823 109.007 37.7998 109.011 37.6159V7.92978C109.013 7.5532 109.164 7.19271 109.431 6.9268C109.697 6.66089 110.058 6.5111 110.435 6.51006C110.617 6.50426 110.798 6.53688 110.967 6.60578C111.136 6.67468 111.289 6.77832 111.415 6.90998C111.675 7.17854 111.819 7.53946 111.815 7.91378V37.6239C111.819 37.8053 111.786 37.9856 111.719 38.154C111.652 38.3224 111.551 38.4754 111.423 38.6037C111.294 38.7319 111.141 38.8328 110.973 38.9002C110.805 38.9676 110.624 39.0001 110.443 38.9957H110.435ZM129.055 43.2588H110.435C110.247 43.261 110.061 43.2244 109.889 43.1515C109.716 43.0786 109.56 42.9708 109.431 42.8349C109.295 42.7016 109.188 42.5421 109.116 42.3661C109.044 42.1902 109.008 42.0013 109.011 41.8111C109.007 41.6249 109.042 41.4398 109.114 41.2681C109.187 41.0965 109.295 40.9421 109.431 40.8153C109.563 40.6849 109.72 40.5823 109.892 40.5136C110.065 40.445 110.249 40.4115 110.435 40.4154H129.055C129.42 40.4177 129.77 40.561 130.031 40.8153C130.174 40.9386 130.287 41.0917 130.364 41.2638C130.441 41.4359 130.479 41.6227 130.475 41.8111C130.477 42.0034 130.439 42.1939 130.362 42.3704C130.286 42.5468 130.173 42.7051 130.031 42.8349C129.904 42.9663 129.753 43.0714 129.585 43.1441C129.418 43.2169 129.238 43.2558 129.055 43.2588Z" fill="#232326"/>
<path d="M83.3623 83.4531H80.9795V89H78.6357V74.7812H83.1279C83.8571 74.7878 84.5277 74.8822 85.1396 75.0645C85.7581 75.2402 86.292 75.5072 86.7412 75.8652C87.1904 76.2168 87.5387 76.6595 87.7861 77.1934C88.0335 77.7272 88.1572 78.3522 88.1572 79.0684C88.1572 79.5501 88.0921 79.9896 87.9619 80.3867C87.8382 80.7773 87.6624 81.1322 87.4346 81.4512C87.2067 81.7702 86.9333 82.0501 86.6143 82.291C86.2952 82.5319 85.9437 82.737 85.5596 82.9062L88.5674 88.8828V89H86.0674L83.3623 83.4531ZM80.9795 81.5586H83.1377C83.5283 81.5586 83.8864 81.5033 84.2119 81.3926C84.5374 81.2819 84.8174 81.1257 85.0518 80.9238C85.2926 80.7155 85.4782 80.4648 85.6084 80.1719C85.7386 79.8724 85.8037 79.5306 85.8037 79.1465C85.8037 78.7493 85.7419 78.3978 85.6182 78.0918C85.4945 77.7858 85.3154 77.5286 85.0811 77.3203C84.8532 77.112 84.5732 76.9557 84.2412 76.8516C83.9092 76.7409 83.5381 76.6823 83.1279 76.6758H80.9795V81.5586Z" fill="#39393C"/>
<path d="M101.338 82.623H95.4889V87.0859H102.335V89H93.1354V74.7812H102.266V76.7148H95.4889V80.7285H101.338V82.623Z" fill="#39393C"/>
<path d="M114.803 85.3379C114.803 84.9993 114.731 84.7031 114.588 84.4492C114.451 84.1888 114.253 83.9609 113.992 83.7656C113.738 83.5703 113.432 83.401 113.074 83.2578C112.723 83.1081 112.339 82.9714 111.922 82.8477C111.362 82.6849 110.809 82.4831 110.262 82.2422C109.722 82.0013 109.237 81.7083 108.807 81.3633C108.384 81.0117 108.039 80.6048 107.772 80.1426C107.511 79.6738 107.381 79.1335 107.381 78.5215C107.381 77.9095 107.511 77.3626 107.772 76.8809C108.039 76.3926 108.393 75.9792 108.836 75.6406C109.279 75.3021 109.793 75.0417 110.379 74.8594C110.965 74.6771 111.577 74.5859 112.215 74.5859C112.899 74.5859 113.537 74.6934 114.129 74.9082C114.728 75.1165 115.249 75.4128 115.692 75.7969C116.141 76.1745 116.496 76.6302 116.756 77.1641C117.016 77.6914 117.15 78.2773 117.156 78.9219H114.813C114.78 78.5638 114.702 78.2383 114.578 77.9453C114.461 77.6458 114.292 77.3887 114.071 77.1738C113.856 76.959 113.592 76.793 113.279 76.6758C112.967 76.5586 112.606 76.5 112.196 76.5C111.844 76.5 111.518 76.5456 111.219 76.6367C110.919 76.7279 110.659 76.8613 110.438 77.0371C110.223 77.2129 110.054 77.4245 109.93 77.6719C109.806 77.9193 109.744 78.1992 109.744 78.5117C109.744 78.8438 109.829 79.1335 109.998 79.3809C110.168 79.6217 110.389 79.8333 110.662 80.0156C110.936 80.1979 111.248 80.3574 111.6 80.4941C111.958 80.6243 112.329 80.7448 112.713 80.8555C113.306 81.0312 113.872 81.2493 114.412 81.5098C114.953 81.7637 115.428 82.0729 115.838 82.4375C116.248 82.7956 116.574 83.2122 116.815 83.6875C117.056 84.1628 117.176 84.7064 117.176 85.3184C117.176 85.9499 117.043 86.5065 116.776 86.9883C116.509 87.4701 116.151 87.8737 115.701 88.1992C115.252 88.5247 114.731 88.7721 114.139 88.9414C113.546 89.1042 112.928 89.1855 112.283 89.1855C111.847 89.1855 111.414 89.1432 110.985 89.0586C110.555 88.974 110.141 88.847 109.744 88.6777C109.354 88.5085 108.989 88.3001 108.651 88.0527C108.312 87.7988 108.016 87.5091 107.762 87.1836C107.515 86.8516 107.319 86.4837 107.176 86.0801C107.033 85.6699 106.958 85.2207 106.951 84.7324H109.305C109.337 85.1621 109.432 85.5365 109.588 85.8555C109.744 86.1745 109.953 86.4414 110.213 86.6562C110.474 86.8646 110.776 87.0241 111.121 87.1348C111.473 87.2389 111.86 87.291 112.283 87.291C112.635 87.291 112.964 87.2487 113.27 87.1641C113.576 87.0794 113.843 86.9557 114.071 86.793C114.298 86.6237 114.477 86.4186 114.608 86.1777C114.738 85.9303 114.803 85.6504 114.803 85.3379Z" fill="#39393C"/>
<path d="M131.9 76.7148H127.535V89H125.201V76.7148H120.865V74.7812H131.9V76.7148Z" fill="#39393C"/>
<path d="M143.138 85.6992H138.695L137.718 89H135.296L139.915 74.7812H141.976L146.507 89H144.095L143.138 85.6992ZM139.29 83.6973H142.552L140.941 78.1211L139.29 83.6973Z" fill="#39393C"/>
<path d="M159.903 74.7812L159.923 84.3027C159.916 85.0319 159.799 85.6992 159.571 86.3047C159.343 86.9036 159.024 87.418 158.614 87.8477C158.204 88.2773 157.706 88.6094 157.12 88.8438C156.541 89.0781 155.89 89.1953 155.167 89.1953C154.464 89.1953 153.826 89.0781 153.253 88.8438C152.68 88.6094 152.188 88.2806 151.778 87.8574C151.368 87.4277 151.049 86.9134 150.821 86.3145C150.593 85.709 150.476 85.0384 150.47 84.3027L150.489 74.7812H152.794L152.813 84.3027C152.82 84.7389 152.875 85.1393 152.979 85.5039C153.084 85.8685 153.233 86.1842 153.429 86.4512C153.624 86.7116 153.865 86.9167 154.151 87.0664C154.444 87.2096 154.783 87.2812 155.167 87.2812C155.558 87.2812 155.903 87.2096 156.202 87.0664C156.502 86.9167 156.752 86.7116 156.954 86.4512C157.156 86.1842 157.309 85.8685 157.413 85.5039C157.517 85.1393 157.573 84.7389 157.579 84.3027L157.599 74.7812H159.903Z" fill="#39393C"/>
<path d="M169.833 83.4531H167.45V89H165.106V74.7812H169.598C170.327 74.7878 170.998 74.8822 171.61 75.0645C172.228 75.2402 172.762 75.5072 173.212 75.8652C173.661 76.2168 174.009 76.6595 174.256 77.1934C174.504 77.7272 174.628 78.3522 174.628 79.0684C174.628 79.5501 174.562 79.9896 174.432 80.3867C174.309 80.7773 174.133 81.1322 173.905 81.4512C173.677 81.7702 173.404 82.0501 173.085 82.291C172.766 82.5319 172.414 82.737 172.03 82.9062L175.038 88.8828V89H172.538L169.833 83.4531ZM167.45 81.5586H169.608C169.999 81.5586 170.357 81.5033 170.682 81.3926C171.008 81.2819 171.288 81.1257 171.522 80.9238C171.763 80.7155 171.949 80.4648 172.079 80.1719C172.209 79.8724 172.274 79.5306 172.274 79.1465C172.274 78.7493 172.212 78.3978 172.088 78.0918C171.965 77.7858 171.786 77.5286 171.551 77.3203C171.324 77.112 171.044 76.9557 170.712 76.8516C170.379 76.7409 170.008 76.6823 169.598 76.6758H167.45V81.5586Z" fill="#39393C"/>
<path d="M186.373 85.6992H181.93L180.953 89H178.531L183.151 74.7812H185.211L189.742 89H187.33L186.373 85.6992ZM182.526 83.6973H185.787L184.176 78.1211L182.526 83.6973Z" fill="#39393C"/>
<path d="M203.09 89H200.726L196.097 79.2148L196.088 89H193.715V74.7812H196.088L200.697 84.5371L200.717 74.7812H203.09V89Z" fill="#39393C"/>
<path d="M218.371 76.7148H214.005V89H211.671V76.7148H207.335V74.7812H218.371V76.7148Z" fill="#39393C"/>
</g>
<defs>
<linearGradient id="paint0_linear" x1="273.199" y1="22.7567" x2="273.199" y2="47.8321" gradientUnits="userSpaceOnUse">
<stop stop-color="#125E4D"/>
<stop offset="0.5" stop-color="#2D9F5A"/>
<stop offset="1" stop-color="#43BE71"/>
</linearGradient>
<linearGradient id="paint1_linear" x1="265.844" y1="11.3607" x2="292.569" y2="10.0569" gradientUnits="userSpaceOnUse">
<stop stop-color="#125E4D"/>
<stop offset="0.5" stop-color="#2D9F5A"/>
<stop offset="1" stop-color="#43BE71"/>
</linearGradient>
<linearGradient id="paint2_linear" x1="263.198" y1="35.1971" x2="280.856" y2="1.12399" gradientUnits="userSpaceOnUse">
<stop stop-color="#125E4D"/>
<stop offset="0.463542" stop-color="#2D9F5A"/>
<stop offset="1" stop-color="#43BE71"/>
</linearGradient>
<clipPath id="clip0">
<path d="M0 0H296V94H0V0Z" fill="white"/>
</clipPath>
</defs>
</svg>
